<?xml version="1.0" encoding="iso-8859-1"?>
<!-- Uploaded to: SVG Repo, www.svgrepo.com, Generator: SVG Repo Mixer Tools -->
<svg fill="#000000" height="800px" width="800px" version="1.1" id="Layer_1" xmlns="http://www.w3.org/2000/svg" xmlns:xlink="http://www.w3.org/1999/xlink" 
	 viewBox="0 0 480 480" xml:space="preserve">
<g>
	<g>
		<g>
			<path d="M408.886,198.978l-76.188-31.708c-0.089-0.037-0.181-0.059-0.27-0.093c-0.281-0.107-0.563-0.212-0.852-0.293
				c-0.149-0.042-0.3-0.067-0.449-0.103c-0.239-0.056-0.478-0.114-0.72-0.152c-0.167-0.026-0.334-0.036-0.502-0.054
				c-0.228-0.024-0.455-0.051-0.686-0.059c-0.174-0.006-0.347,0.001-0.521,0.004c-0.223,0.003-0.446,0.006-0.669,0.024
				c-0.18,0.015-0.356,0.043-0.535,0.067c-0.215,0.029-0.43,0.059-0.643,0.102c-0.186,0.038-0.368,0.088-0.551,0.137
				c-0.143,0.038-0.286,0.062-0.427,0.106l-98.587,30.78l-13.153-4.082c23.014-34.822,35.119-70.166,35.119-102.848
				C249.254,40.736,208.504,0,158.415,0c-50.071,0-90.807,40.736-90.807,90.807c0,30.75,10.726,63.855,31.167,96.666l-27.658,11.505
				c-3.729,1.551-6.16,5.194-6.16,9.233V470c0,3.343,1.671,6.465,4.452,8.32c1.667,1.112,3.602,1.68,5.549,1.68
				c1.301,0,2.607-0.254,3.843-0.769l72.328-30.121l72.321,30.121c0.001,0,0.001,0,0.002,0.001c0.28,0.116,0.566,0.216,0.855,0.307
				c0.091,0.029,0.184,0.052,0.275,0.078c0.201,0.057,0.403,0.108,0.607,0.152c0.105,0.023,0.209,0.043,0.314,0.063
				c0.204,0.037,0.409,0.066,0.615,0.091c0.094,0.011,0.188,0.025,0.282,0.033c0.294,0.027,0.59,0.043,0.887,0.044
				c0.002,0,0.004,0,0.006,0h0.001h0.001c0.471,0,0.943-0.036,1.414-0.103c0.017-0.003,0.035-0.003,0.053-0.006
				c0.45-0.066,0.896-0.168,1.338-0.298c0.035-0.01,0.07-0.018,0.105-0.028c0.024-0.007,0.048-0.012,0.072-0.02l98.089-30.638
				l72.832,30.325c1.236,0.515,2.542,0.768,3.843,0.768c1.947,0,3.882-0.568,5.549-1.68c2.781-1.854,4.452-4.977,4.452-8.32V208.21
				C415.043,204.172,412.614,200.53,408.886,198.978z M141.132,431.61l-56.173,23.393V214.881l24.71-10.278
				c0.174-0.073,0.337-0.16,0.505-0.241c11.528,15.834,22.974,28.357,30.958,36.434V431.61z M158.444,229.767
				c-18.681-18.377-70.835-75.388-70.835-138.96C87.609,51.764,119.374,20,158.415,20c39.06,0,70.837,31.764,70.837,70.807
				C229.253,154.38,177.118,211.39,158.444,229.767z M217.297,455.002l-56.165-23.393V253.127c1.388-0.387,2.711-1.075,3.862-2.072
				c0.79-0.684,18.093-15.782,36.896-40.259c0.002,0.001,0.003,0.001,0.005,0.002l15.402,4.779V455.002z M318.856,430.925
				L237.297,456.4V215.564l81.559-25.463V430.925z M395.043,455.004l-56.188-23.395V191.496l56.188,23.384V455.004z"/>
			<path d="M158.417,46.442c-24.451,0-44.343,19.902-44.343,44.365s19.892,44.365,44.343,44.365
				c24.462,0,44.365-19.902,44.365-44.365S182.88,46.442,158.417,46.442z M158.417,115.172c-13.423,0-24.343-10.93-24.343-24.365
				s10.92-24.365,24.343-24.365c13.435,0,24.365,10.93,24.365,24.365S171.852,115.172,158.417,115.172z"/>
		</g>
	</g>
</g>
</svg>