<?xml version="1.0" encoding="iso-8859-1"?>
<!-- Uploaded to: SVG Repo, www.svgrepo.com, Generator: SVG Repo Mixer Tools -->
<!DOCTYPE svg PUBLIC "-//W3C//DTD SVG 1.1//EN" "http://www.w3.org/Graphics/SVG/1.1/DTD/svg11.dtd">
<svg fill="#000000" height="800px" width="800px" version="1.1" id="Capa_1" xmlns="http://www.w3.org/2000/svg" xmlns:xlink="http://www.w3.org/1999/xlink" 
	 viewBox="0 0 412.795 412.795" xml:space="preserve">
<g>
	<path d="M319.057,194.575v-15.938h12.484V146.64l-121.814-43.727V78.055c11.607,3.979,20.348-8.847,32.527-1.511
		c0-9.043,0-13.566,0-22.607c-12.18-7.334-20.92,5.49-32.527,1.511v-4.05h-6.459v51.444L81.254,146.64v31.998h12.484v15.938H0
		v23.162h14.592v132.522h63.607v11.139h256.398v-11.139h63.604V217.737h14.594v-23.162H319.057z M70.188,318.108H41.129v-82.476
		h29.059V318.108z M154.266,301.616h-31.623v-34.771h31.623V301.616z M154.266,246.735h-31.623v-34.77h31.623V246.735z
		 M226.4,339.118h-40.006v-75.006H226.4V339.118z M190.588,246.735v-34.77h31.619v34.77H190.588z M230.004,193.04
		c0,0-15.059,9.994-23.605,9.994c-8.547,0-23.606-9.994-23.606-9.994v-54.105c0,0,8.578,3.328,23.606,3.328
		c15.023,0,23.605-3.328,23.605-3.328V193.04z M290.152,301.616h-31.623v-34.771h31.623V301.616z M290.152,246.735h-31.623v-34.77
		h31.623V246.735z M371.666,318.108h-29.057v-82.476h29.057V318.108z"/>
	<path d="M204.063,151.001c0,0.771,0.379,1.451,0.955,1.877l-4.459,6.701l-8.202,0.523c-0.078-1.219-1.081-2.189-2.321-2.189
		c-1.287,0-2.334,1.049-2.334,2.338c0,1.285,1.047,2.332,2.334,2.332c0.373,0,0.72-0.096,1.032-0.25l3.651,7.361l-3.663,7.388
		c-0.31-0.151-0.653-0.243-1.021-0.243c-1.287,0-2.334,1.045-2.334,2.334c0,1.287,1.047,2.332,2.334,2.332
		c1.252,0,2.264-0.984,2.324-2.217l8.199,0.521l4.46,6.703c-0.577,0.426-0.956,1.104-0.956,1.875c0,1.289,1.047,2.334,2.336,2.334
		c1.287,0,2.334-1.045,2.334-2.334c0-0.77-0.379-1.449-0.954-1.875l4.46-6.703l8.199-0.521c0.061,1.232,1.072,2.217,2.324,2.217
		c1.285,0,2.334-1.045,2.334-2.332c0-1.289-1.049-2.334-2.334-2.334c-0.368,0-0.711,0.093-1.021,0.244l-3.665-7.389l3.652-7.361
		c0.313,0.154,0.66,0.25,1.033,0.25c1.285,0,2.334-1.047,2.334-2.332c0-1.289-1.049-2.338-2.334-2.338
		c-1.24,0-2.243,0.971-2.321,2.189l-8.202-0.523l-4.459-6.703c0.575-0.426,0.953-1.104,0.953-1.875c0-1.291-1.047-2.334-2.334-2.334
		C205.109,148.667,204.063,149.71,204.063,151.001z M214.018,169.694c0,4.209-3.41,7.619-7.619,7.619
		c-4.207,0-7.619-3.41-7.619-7.619s3.412-7.619,7.619-7.619C210.607,162.075,214.018,165.485,214.018,169.694z"/>
</g>
</svg>