<?xml version="1.0" encoding="UTF-8" standalone="no" ?>
<!DOCTYPE svg PUBLIC "-//W3C//DTD SVG 1.1//EN" "http://www.w3.org/Graphics/SVG/1.1/DTD/svg11.dtd">
<svg xmlns="http://www.w3.org/2000/svg" xmlns:xlink="http://www.w3.org/1999/xlink" version="1.1" width="1080" height="1080" viewBox="0 0 1080 1080" xml:space="preserve">
<desc>Created with Fabric.js 5.2.4</desc>
<defs>
</defs>
<g transform="matrix(1 0 0 1 540 540)" id="09143851-c547-4ef7-bf45-3d9dc13122e1"  >
<rect style="stroke: none; stroke-width: 1; stroke-dasharray: none; stroke-linecap: butt; stroke-dashoffset: 0; stroke-linejoin: miter; stroke-miterlimit: 4; fill: rgb(255,255,255); fill-rule: nonzero; opacity: 1; visibility: hidden;" vector-effect="non-scaling-stroke"  x="-540" y="-540" rx="0" ry="0" width="1080" height="1080" />
</g>
<g transform="matrix(1 0 0 1 540 540)" id="e65bc573-4f16-4716-a5d3-19bf1a8d7b53"  >
</g>
<g transform="matrix(1 0 0 1 540 540)" id="ecf2c49c-7797-49ff-ac96-fb01b134b06a"  >
<path style="stroke: rgb(0,0,0); stroke-width: 0; stroke-dasharray: none; stroke-linecap: butt; stroke-dashoffset: 0; stroke-linejoin: miter; stroke-miterlimit: 4; fill: rgb(255,255,255); fill-rule: nonzero; opacity: 1;" vector-effect="non-scaling-stroke"  transform=" translate(-255.5, -255.5)" d="M 503.5 179.999 L 431 179.999 L 431 179.499 C 431 169.164 424.29 160.37199999999999 415 157.233 L 415 147.499 C 415 143.357 411.642 139.999 407.5 139.999 C 403.358 139.999 400 143.357 400 147.499 L 400 157.233 C 390.71 160.371 384 169.163 384 179.499 L 384 179.999 L 311.5 179.999 C 307.358 179.999 304 183.357 304 187.499 C 304 191.641 307.358 194.999 311.5 194.999 L 400 194.999 L 400 205.233 C 390.71 208.371 384 217.163 384 227.499 L 384 235.999 L 366.091 235.999 C 362.717 222.24 350.285 211.999 335.5 211.999 L 175.5 211.999 C 160.715 211.999 148.284 222.24 144.909 235.999 L 127 235.999 L 127 227.499 C 127 217.164 120.29 208.37199999999999 111 205.233 L 111 194.999 L 199.5 194.999 C 203.642 194.999 207 191.641 207 187.499 C 207 183.357 203.642 179.999 199.5 179.999 L 127 179.999 L 127 179.499 C 127 169.164 120.29 160.37199999999999 111 157.233 L 111 147.499 C 111 143.357 107.642 139.999 103.5 139.999 C 99.358 139.999 96 143.357 96 147.499 L 96 157.233 C 86.71000000000001 160.371 80 169.163 80 179.499 L 80 179.999 L 7.5 179.999 C 3.3579999999999997 179.999 0 183.357 0 187.499 C 0 191.641 3.358 194.999 7.5 194.999 L 96 194.999 L 96 205.233 C 86.71000000000001 208.371 80 217.163 80 227.499 L 80 243.499 C 80 256.457 90.542 266.999 103.5 266.999 C 113.836 266.999 122.628 260.28900000000004 125.76599999999999 250.99900000000002 L 144.91 250.99900000000002 C 148.277 264.728 160.662 274.952 175.404 274.997 C 173.751 277.689 172.47899999999998 280.663 171.68 283.86 L 153.645 356 L 143.5 356 C 139.358 356 136 359.358 136 363.5 C 136 367.642 139.358 371 143.5 371 L 159.478 371 C 159.487 371 159.497 371.002 159.506 371.002 C 159.513 371.002 159.519 371 159.526 371 L 175.5 371 C 179.642 371 183 367.642 183 363.5 C 183 359.358 179.642 356 175.5 356 L 169.106 356 L 186.231 287.498 C 188.071 280.14 194.653 275 202.239 275 L 308.761 275 C 316.346 275 322.92900000000003 280.14 324.769 287.498 L 341.894 356 L 335.5 356 C 331.358 356 328 359.358 328 363.5 C 328 367.642 331.358 371 335.5 371 L 351.474 371 C 351.481 371 351.48699999999997 371.002 351.49399999999997 371.002 C 351.503 371.002 351.513 371 351.522 371 L 367.5 371 C 371.642 371 375 367.642 375 363.5 C 375 359.358 371.642 356 367.5 356 L 357.356 356 L 339.32099999999997 283.86 C 338.522 280.663 337.24999999999994 277.69 335.597 274.997 C 350.339 274.952 362.724 264.728 366.091 250.99900000000002 L 385.235 250.99900000000002 C 388.373 260.28900000000004 397.165 266.999 407.50100000000003 266.999 C 420.45900000000006 266.999 431.00100000000003 256.45700000000005 431.00100000000003 243.49900000000002 L 431.00100000000003 227.49900000000002 C 431.00100000000003 217.16400000000002 424.29100000000005 208.372 415.00100000000003 205.23300000000003 L 415.00100000000003 194.99900000000002 L 503.50100000000003 194.99900000000002 C 507.64300000000003 194.99900000000002 511.00100000000003 191.64100000000002 511.00100000000003 187.49900000000002 C 511.00100000000003 183.35700000000003 507.642 179.999 503.5 179.999 z M 95 179.499 C 95 174.81199999999998 98.813 170.999 103.5 170.999 C 108.187 170.999 112 174.81199999999998 112 179.499 L 112 179.999 L 95 179.999 L 95 179.499 z M 103.5 251.999 C 98.813 251.999 95 248.186 95 243.499 L 95 227.499 C 95 222.81199999999998 98.813 218.999 103.5 218.999 C 108.187 218.999 112 222.81199999999998 112 227.499 L 112 243.499 C 112 248.186 108.187 251.999 103.5 251.999 z M 335.5 259.999 L 175.5 259.999 C 166.402 259.999 159 252.59700000000004 159 243.49900000000002 C 159 234.401 166.402 226.99900000000002 175.5 226.99900000000002 L 335.5 226.99900000000002 C 344.598 226.99900000000002 352 234.401 352 243.49900000000002 C 352 252.59700000000004 344.598 259.999 335.5 259.999 z M 416 243.499 C 416 248.186 412.187 251.999 407.5 251.999 C 402.813 251.999 399 248.186 399 243.499 L 399 227.499 C 399 222.81199999999998 402.813 218.999 407.5 218.999 C 412.187 218.999 416 222.81199999999998 416 227.499 L 416 243.499 z M 399 179.499 C 399 174.81199999999998 402.813 170.999 407.5 170.999 C 412.187 170.999 416 174.81199999999998 416 179.499 L 416 179.999 L 399 179.999 L 399 179.499 z" stroke-linecap="round" />
</g>
</svg>